# xmcd
#
# Track frame offsets:
#	150
#	13802
#	31793
#	49892
#	65795
#	84292
#	100462
#	104120
#
# Disc length: 1590 seconds
#
# Revision: 0
# Processed by: cddbd v1.5.2PL0 Copyright (c) Steve Scherf et al.
# Submitted via: EasyCDDAExtractor 10.0.4.1
#
DISCID=6a063408
DTITLE=Norah Jones - Live at Studio 104, Maison de Radio-France, Paris 2007-01
DTITLE=20 [CD2)
DYEAR=2007
DGENRE=Blues
TTITLE0=Little room
TTITLE1=My dear country
TTITLE2=Rosie's lullaby
TTITLE3=Be my somebody
TTITLE4=Don't know why
TTITLE5=Come away with me
TTITLE6=Encore, applause
TTITLE7=Lonestar
EXTD=
EXTT0=
EXTT1=
EXTT2=
EXTT3=
EXTT4=
EXTT5=
EXTT6=
EXTT7=
PLAYORDER=
